<?xml version="1.0" encoding="UTF-8"?>
<svg width="75px" height="66px" viewBox="0 0 75 66" version="1.1" xmlns="http://www.w3.org/2000/svg" xmlns:xlink="http://www.w3.org/1999/xlink">
    <!-- Generator: Sketch 52.4 (67378) - http://www.bohemiancoding.com/sketch -->
    <title>Fill 1</title>
    <desc>Created with Sketch.</desc>
    <g id="Welcome" stroke="none" stroke-width="1" fill="none" fill-rule="evenodd">
        <g id="设计规范" transform="translate(-1459.000000, -639.000000)" fill="#F7B915">
            <g id="提示一" transform="translate(1419.000000, 546.000000)">
                <path d="M114.205452,151.14526 L114.205452,151.134756 L82.1389334,95.5876545 L82.1333,95.5876545 C81.7319911,94.1093358 79.8992231,93 77.6975144,93 C75.4802422,93 73.653394,94.1358828 73.2677441,95.6305307 L40.4459667,152.479099 L40.4731789,152.516437 C39.7231714,153.261373 39.867826,155.029416 40.8852772,156.679335 C41.9087438,158.362007 43.4513434,159.299743 44.4475978,158.913667 L44.485313,158.972204 L110.921746,158.972204 L110.959462,158.887216 C112.068289,159.058434 113.434152,158.082978 114.286038,156.346925 C115.282197,154.349032 115.218034,152.099039 114.205452,151.14526 Z M73,113.472526 C73,111.002021 75.0197542,109 77.499807,109 C79.9908629,109 82,111.002021 82,113.472526 L82,136.52709 C82,138.992031 79.9908629,141 77.499807,141 C75.0197542,141 73,138.992319 73,136.52709 L73,113.472526 Z M77.0003944,153 C74.2402642,153 72,150.758391 72,147.99206 C72,145.22997 74.2402642,143 77.0003944,143 C79.7605245,143 82,145.230759 82,147.99206 C82,150.75267 79.7605245,153 77.0003944,153 Z" id="Fill-1"></path>
            </g>
        </g>
    </g>
</svg>