<?xml version="1.0" encoding="UTF-8"?>
<svg width="60px" height="70px" viewBox="0 0 60 70" version="1.1" xmlns="http://www.w3.org/2000/svg" xmlns:xlink="http://www.w3.org/1999/xlink">
    <!-- Generator: Sketch 52.4 (67378) - http://www.bohemiancoding.com/sketch -->
    <title>Fill 1</title>
    <desc>Created with Sketch.</desc>
    <g id="Welcome" stroke="none" stroke-width="1" fill="none" fill-rule="evenodd">
        <g id="参保核算弹窗" transform="translate(-930.000000, -249.000000)" fill="#A5BBCD">
            <g id="提示一" transform="translate(720.000000, 70.000000)">
                <path d="M267.343892,193.843853 C268.072907,194.572868 268.698181,195.562606 269.218857,196.812726 C269.739619,198.062503 270,199.208453 270,200.249891 L270,245.250255 C270,246.291779 269.63545,247.177347 268.906434,247.906363 C268.177077,248.63572 267.29185,249.000271 266.249984,249.000271 L213.750016,249.000271 C212.70815,249.000271 211.822923,248.63572 211.093908,247.906363 C210.36455,247.177347 210,246.291779 210,245.250255 L210,182.750016 C210,181.708236 210.36455,180.822923 211.093908,180.093908 C211.822923,179.36455 212.70815,179 213.750016,179 L248.750109,179 C249.791633,179 250.937582,179.260381 252.187702,179.781143 C253.437479,180.302247 254.427217,180.927093 255.156233,181.656108 L267.343892,193.843853 Z M250.000228,184.312558 L250.000228,199.000114 L264.687784,199.000114 C264.427061,198.244778 264.140701,197.710942 263.828193,197.398519 L251.601481,185.171807 C251.289058,184.859384 250.755307,184.572939 250.000228,184.312558 Z M265.000207,244.000135 L265.000207,203.999907 L248.750109,203.999907 C247.708328,203.999907 246.823016,203.635442 246.093659,202.906341 C245.364643,202.177326 245.000093,201.291757 245.000093,200.249891 L245.000093,184.000135 L215.000135,184.000135 L215.000135,244.000135 L265.000207,244.000135 Z M226.757871,234.859455 L226.757871,239 L237.734463,239 L237.734463,234.859455 L234.804643,234.859455 L238.828371,228.570575 C238.958519,228.3883 239.088667,228.173295 239.2189,227.925989 C239.349048,227.678597 239.446552,227.502646 239.511668,227.398562 C239.576699,227.294392 239.622503,227.24235 239.648481,227.24235 L239.726587,227.24235 C265.768275,227.346434 265.833391,227.476667 239.921852,227.632879 C239.973979,227.737048 240.032686,227.834809 240.097803,227.925989 C240.16292,228.017084 240.241025,228.121253 240.33212,228.238412 C240.423301,228.355571 240.50773,228.466406 240.586178,228.570575 L244.765775,234.859455 L241.796902,234.859455 L241.796902,239 L253.164024,239 L253.164024,234.859455 L250.507915,234.859455 L243.007969,224.195286 L250.625074,213.17964 L253.242129,213.17964 L253.242129,209.000043 L242.343643,209.000043 L242.343643,213.17964 L245.23441,213.17964 L241.211024,219.390842 C241.10694,219.573032 240.976706,219.788036 240.820495,220.035428 C240.664283,220.282735 240.546783,220.458344 240.468677,220.562514 L240.390571,220.679672 L240.312466,220.679672 C266.354153,220.575503 266.289037,220.445355 240.117201,220.289058 C239.960904,220.002699 239.739662,219.703265 239.453217,219.390842 L235.312672,213.17964 L238.281203,213.17964 L238.281203,209.000043 L226.953135,209.000043 L226.953135,213.17964 L229.609585,213.17964 L236.992373,223.804757 L229.413979,234.859455 L226.757871,234.859455 Z" id="Fill-1"></path>
            </g>
        </g>
    </g>
</svg>