<?xml version="1.0" encoding="UTF-8"?>
<svg width="80px" height="105px" viewBox="0 0 80 105" version="1.1" xmlns="http://www.w3.org/2000/svg" xmlns:xlink="http://www.w3.org/1999/xlink">
    <!-- Generator: Sketch 52.4 (67378) - http://www.bohemiancoding.com/sketch -->
    <title>分组@1x</title>
    <desc>Created with Sketch.</desc>
    <defs>
        <polygon id="path-1" points="0.209086386 0.0577861635 2.42940369 0.0577861635 2.42940369 2.51572327 0.209086386 2.51572327"></polygon>
        <polygon id="path-3" points="0 0.0526907806 2.38231447 0.0526907806 2.38231447 2.30081239 0 2.30081239"></polygon>
    </defs>
    <g id="Welcome" stroke="none" stroke-width="1" fill="none" fill-rule="evenodd">
        <g id="参保核算详情-暂无记录" transform="translate(-631.000000, -393.000000)">
            <g id="分组" transform="translate(320.000000, 322.000000)">
                <g transform="translate(311.000000, 71.837408)">
                    <path d="M15.5653082,62.7238491 C15.5650566,51.4073711 15.597761,40.0906415 15.5401509,28.7746667 C15.5270692,26.1983145 16.7446792,25.7955472 18.6166289,25.5965535 C18.865434,25.5701384 19.1190189,25.5907673 19.3705912,25.5907673 C33.9562516,25.5907673 48.5419119,25.5945409 63.1275723,25.5789434 C63.8933585,25.5779371 64.6329811,25.6783145 65.3539874,25.8780629 C67.3884528,26.4415849 67.9044277,27.1578113 67.9041761,29.2564277 C67.9024151,43.9676226 67.8936101,58.6790692 67.9147421,73.3902642 C67.9172579,75.0931572 67.6860629,76.4798239 66.4387673,77.9381887 C64.9680755,79.6576855 63.4518491,81.4018365 62.1698365,83.2951698 C60.8455597,85.2511447 59.0141132,86.7477484 57.5393962,88.5638491 C54.9411572,91.7635975 52.0503396,94.7293836 49.8319748,98.233283 C49.0933585,99.4000755 48.0005283,99.8149182 46.6249308,99.8108931 C37.2365031,99.7834717 27.8480755,99.7973082 18.4596478,99.7957987 C16.3650566,99.7952956 15.5688302,99.0161761 15.5680755,96.9243522 C15.5627925,85.5243522 15.5655597,74.1238491 15.5653082,62.7238491" id="Fill-1" fill="#D7D7D7"></path>
                    <path d="M63.8595723,12.8297358 C63.8656101,9.83552201 65.9229686,7.79728302 68.8112704,7.69539623 C71.4573082,7.60231447 73.8588176,9.96457862 73.8761761,12.8455849 C73.8940377,15.750239 72.0200755,18.183195 68.6135346,18.0704906 C65.6364277,17.9718742 63.8530314,16.0838239 63.8595723,12.8297358" id="Fill-3" fill="#D7D7D7"></path>
                    <path d="M10.3975094,85.6112704 C10.3479497,85.9871195 10.1190189,86.2520252 9.77662893,86.326239 C8.98241509,86.4983145 8.61260377,86.9964277 8.36455346,87.7435975 C8.11675472,88.4905157 7.7069434,88.7934088 7.06568553,87.9435975 C6.56832704,87.2847296 5.89889308,86.7576855 5.32480503,86.1536604 C4.88254088,85.6885031 4.84606289,85.1443522 5.54467925,85.0251069 C6.46191195,84.8691321 6.67801258,84.3000755 6.78442767,83.5506415 C6.82266667,83.282717 6.96153459,83.0784403 7.23222642,83.0052327 C7.52555975,82.9257358 7.70996226,83.0849811 7.83373585,83.329761 C8.28027673,84.2127799 8.78996226,84.9981887 9.92958491,85.0734088 C10.1492075,85.088 10.3466918,85.3383145 10.3975094,85.6112704" id="Fill-5" fill="#D8D8D8"></path>
                    <path d="M77.4379623,39.1422642 C76.9001006,39.1309434 76.7478994,38.832327 76.6887799,38.4144654 C76.5873962,37.6957233 76.3267673,37.1384906 75.4445031,37.1538365 C74.9790943,37.1618868 74.7755723,36.7880503 74.7944403,36.3948428 C74.8140629,35.9820126 75.1468931,35.6803774 75.5413585,35.6846541 C76.3926792,35.6939623 76.7524277,35.3357233 76.7317987,34.4871698 C76.7232453,34.1359748 76.9828679,33.8275472 77.3433711,33.7983648 C77.7053836,33.769434 78.0261384,34.0388679 78.0608553,34.3807547 C78.1504151,35.2630189 78.6211069,35.6748428 79.4613585,35.8295597 C79.722239,35.8773585 79.9373333,36.1737107 79.9451321,36.5 C79.953434,36.8396226 79.7504151,37.0909434 79.4397233,37.1150943 C78.5154465,37.1872956 78.174566,37.8101887 77.962239,38.574717 C77.8759497,38.8859119 77.6965786,39.0798742 77.4379623,39.1422642" id="Fill-7" fill="#D7D7D7"></path>
                    <path d="M4.52966038,37.418717 C3.64890566,37.427522 2.84010063,36.5917987 2.78903145,35.6207296 C2.75104403,34.8964528 3.64613836,33.8426164 4.35557233,33.9372075 C5.18072956,34.0473962 6.18701887,34.3067673 6.17645283,35.3148176 C6.16437736,36.4775849 5.7067673,37.4209811 4.52966038,37.418717" id="Fill-9" fill="#D7D7D7"></path>
                    <path d="M26.1295094,1.62186164 C26.1103899,2.82890566 25.4905157,3.48877987 24.4107673,3.45154717 C23.5491321,3.42211321 22.6507673,2.58915723 22.6490063,1.81833962 C22.6474969,1.15041509 23.7035975,0.0193459119 24.3471195,0.000477987421 C25.1274969,-0.0226666667 26.1408302,0.89909434 26.1295094,1.62186164" id="Fill-11" fill="#D8D8D8"></path>
                    <path d="M66.1454843,85.3314465 C66.095673,86.6184906 65.5034717,87.2849057 64.5313962,87.2277987 C63.5034717,87.167673 62.9145409,86.6104403 62.8725283,85.5789937 C62.8330314,84.6031447 63.7796981,83.6693082 64.7178113,83.8011321 C65.6161761,83.9274214 66.3160503,84.3407547 66.1454843,85.3314465" id="Fill-13" fill="#D7D7D7"></path>
                    <path d="M39.9907925,8.34971069 C39.8471447,8.88354717 40.3520503,9.77864151 39.1656352,9.74593711 C38.1165786,9.71700629 36.9663899,9.01386164 36.9490314,8.33637736 C36.9304151,7.60681761 38.0373333,6.74719497 39.0307925,6.73008805 C40.2821132,6.70845283 39.8984654,7.66015094 39.9907925,8.34971069" id="Fill-15" fill="#D8D8D8"></path>
                    <g transform="translate(69.685535, 101.025912)">
                        <mask id="mask-2" fill="white">
                            <use xlink:href="#path-1"></use>
                        </mask>
                        <g id="Clip-18"></g>
                        <path d="M1.36080503,0.0577861635 C2.05086792,0.232880503 2.45413836,0.789106918 2.42822642,1.39841509 C2.40130818,2.03262893 1.88734591,2.55388679 1.17237736,2.51363522 C0.484578616,2.47464151 0.229232704,1.96671698 0.209861635,1.29728302 C0.186465409,0.492754717 0.695396226,0.229610063 1.36080503,0.0577861635" id="Fill-17" fill="#D8D8D8" mask="url(#mask-2)"></path>
                    </g>
                    <g transform="translate(0.000000, 50.208302)">
                        <mask id="mask-4" fill="white">
                            <use xlink:href="#path-3"></use>
                        </mask>
                        <g id="Clip-20"></g>
                        <path d="M2.38231447,1.14699371 C2.02659119,1.65013836 1.88545912,2.36686792 1.05828931,2.29592453 C0.373257862,2.23730818 -0.0926540881,1.86498113 0.0155220126,1.17139623 C0.118163522,0.514540881 0.590616352,0.028 1.31464151,0.0536603774 C1.9556478,0.0763018868 2.17979874,0.618188679 2.38231447,1.14699371" id="Fill-19" fill="#D8D8D8" mask="url(#mask-4)"></path>
                    </g>
                    <path d="M17.0904654,62.8513459 L17.0904654,30.7831698 C17.0904654,30.4478239 17.0882013,30.112478 17.0912201,29.7771321 C17.1123522,27.476 17.2353711,27.3482013 19.4781384,27.3482013 C34.0240503,27.3469434 48.5699623,27.347195 63.1158742,27.3479497 C63.5349937,27.3479497 63.9586415,27.3185157 64.372478,27.3685786 C65.6585157,27.5243019 66.1470692,28.0639245 66.1470692,29.2981384 C66.148327,44.388956 66.1370063,59.4800252 66.1692075,74.5708428 C66.1717233,75.6568805 65.7870692,76.232478 64.8363774,76.7051824 C62.5817862,77.8256855 60.2170063,78.3414088 57.7156226,78.4327296 C54.8001509,78.5386415 51.9073208,78.5713459 48.9900881,78.2178868 C46.181283,77.8775094 44.9676981,79.4078239 45.7214088,82.1300881 C46.7010314,85.6694591 47.6597736,89.2133585 48.4004025,92.8090818 C48.6776352,94.1562516 48.6680755,95.5476981 48.3505912,96.916 C48.1729811,97.6820377 47.7498365,98.041283 46.9392704,98.0405283 C37.4237987,98.0292075 27.9080755,98.0297107 18.3923522,98.0425409 C17.7382642,98.0432956 17.4139874,97.8022893 17.2383899,97.164805 C17.0887044,96.6214088 17.0932327,96.0890818 17.0929811,95.5482013 C17.0897107,84.6490818 17.0904654,73.7502138 17.0904654,62.8513459" id="Fill-21" fill="#FEFEFE"></path>
                    <path d="M72.6854843,12.9674214 C72.6784403,15.2152201 70.9503899,17.0265409 68.8067421,17.0328302 C66.5941635,17.0393711 64.8942893,15.2084277 64.8641006,12.8937107 C64.8346667,10.6436478 66.5534088,8.94779874 68.7740377,8.80289308 C70.9282516,8.66251572 72.6927799,10.6491824 72.6854843,12.9674214" id="Fill-23" fill="#FEFEFE"></path>
                    <path d="M41.7215849,50.7419623 C37.0727799,50.7417107 32.4237233,50.744478 27.7749182,50.7371824 C27.3311447,50.7366792 26.8312704,50.8672453 26.5135346,50.3907673 C26.1336604,49.8207044 26.4672453,49.0986918 27.1716478,48.9998239 C27.4594465,48.9595723 27.7570566,48.9887547 28.0501384,48.9887547 C37.0969308,48.9885031 46.1434717,48.9885031 55.1900126,48.9887547 C55.4413333,48.9887547 55.6926541,48.9854843 55.9437233,48.991522 C56.5711447,49.0058616 57.0196981,49.2918994 57.0513962,49.940956 C57.0896352,50.7281258 56.4936604,50.7434717 55.9195723,50.7432201 C51.1869937,50.7414591 46.4541635,50.7422138 41.7215849,50.7419623" id="Fill-25" fill="#D8D8D8"></path>
                    <path d="M41.4846289,39.4249057 C36.8358239,39.4249057 32.1867673,39.4286792 27.5377107,39.4198742 C26.9394717,39.4188679 26.1326792,39.6005031 26.1706667,38.6166038 C26.2018616,37.8133333 26.8330566,37.6659119 27.5291572,37.6664151 C36.9107925,37.6722013 46.2926792,37.6722013 55.6743145,37.6656604 C56.336956,37.6651572 56.8577107,37.7728302 56.8242516,38.6027673 C56.7933082,39.3677987 56.2717987,39.4274214 55.6828679,39.4269182 C50.9500377,39.4233962 46.2172075,39.4249057 41.4846289,39.4249057" id="Fill-27" fill="#D8D8D8"></path>
                    <path d="M41.4856101,60.3044277 C46.0058616,60.3049308 50.5263648,60.3031698 55.0466164,60.3079497 C55.4207044,60.3082013 55.8038491,60.3087044 56.1663648,60.3861887 C56.556805,60.4699623 56.8252327,60.7122264 56.8305157,61.1751195 C56.8360503,61.6390189 56.5776855,61.8863145 56.1817107,61.9695849 C55.8184403,62.0458113 55.4360503,62.0513459 55.0622138,62.0515975 C46.1052327,62.0556226 37.1485031,62.0548679 28.191522,62.0548679 C28.0239748,62.0548679 27.8559245,62.0644277 27.6893836,62.0528553 C27.0124025,62.0055597 26.2071195,61.9874465 26.1794465,61.1029182 C26.1457358,60.0344906 27.0632201,60.3157484 27.6735346,60.3132327 C32.2775597,60.2961258 36.8815849,60.3039245 41.4856101,60.3044277" id="Fill-29" fill="#D8D8D8"></path>
                    <path d="M41.609434,71.6170818 C46.2212579,71.616327 50.8333333,71.6133082 55.4451572,71.6201006 C56.0537107,71.6208553 56.8859119,71.4749434 56.7875472,72.4429937 C56.6984906,73.322239 55.9993711,73.2050063 55.26,73.2007296 C46.1208805,73.1519245 36.9812579,73.1624906 27.8416352,73.1677736 C27.5566038,73.1680252 27.2667925,73.3431195 26.9872956,73.3227421 C26.5528302,73.2912956 26.169434,73.1179623 26.1440252,72.5768302 C26.1186164,72.0392201 26.308805,71.6568302 26.8937107,71.6319245 C27.5633962,71.6029937 28.2350943,71.6180881 28.9057862,71.6180881 C33.1402516,71.6173333 37.374717,71.6175849 41.609434,71.6170818" id="Fill-31" fill="#D8D8D8"></path>
                    <path d="M33.8097107,84.4642013 C31.7143648,84.4647044 29.6190189,84.4654591 27.523673,84.4642013 C27.0061887,84.4639497 26.4474465,84.4697358 26.4139874,83.762566 C26.3767547,82.9801761 26.9513459,82.9376604 27.532478,82.9379119 C31.848956,82.9391698 36.1651824,82.9416855 40.4816604,82.9341384 C41.0165031,82.9331321 41.5968805,82.9567799 41.6192704,83.6083522 C41.6431698,84.2984151 41.0673208,84.4619371 40.4728553,84.4624403 C38.2517233,84.464956 36.0308428,84.4634465 33.8097107,84.4642013" id="Fill-33" fill="#D8D8D8"></path>
                </g>
            </g>
        </g>
    </g>
</svg>